<svg xmlns="http://www.w3.org/2000/svg" width="400" height="400">
  <g fill-rule="evenodd" fill="#fff">
    <path d="M150 312.5c0 6.9 5.6 12.5 12.5 12.5h200c6.9 0 12.5-5.6 12.5-12.5v-225c0-6.9-5.6-12.5-12.5-12.5h-200c-6.9 0-12.5 5.6-12.5 12.5v50a12.5 12.5 0 0 1-25 0v-50A37.5 37.5 0 0 1 162.5 50h200A37.5 37.5 0 0 1 400 87.5v225a37.5 37.5 0 0 1-37.5 37.5h-200a37.5 37.5 0 0 1-37.5-37.5v-50a12.5 12.5 0 0 1 25 0Zm0 0"/>
    <path d="M3.8 208.8a12.5 12.5 0 0 1 0-17.6l75-75a12.5 12.5 0 1 1 17.5 17.5l-53.5 53.8h219.7a12.5 12.5 0 0 1 0 25h-220l53.8 53.8a12.5 12.5 0 0 1-17.5 17.4Zm0 0"/>
  </g>
</svg>
